<svg xmlns="http://www.w3.org/2000/svg" xmlns:xlink="http://www.w3.org/1999/xlink" version="1.1" width="256" height="256" viewBox="0 0 256 256" xml:space="preserve" fill="white">

<defs>
</defs>
<g style="stroke: none; stroke-width: 0; stroke-dasharray: none; stroke-linecap: butt; stroke-linejoin: miter; stroke-miterlimit: 10; fill: white; fill-rule: nonzero; opacity: 1;" transform="translate(1.4065934065934016 1.4065934065934016) scale(2.81 2.81)" >
	<path d="M 57.344 17.529 c 0.553 0 1 -0.448 1 -1 v -6.513 c 0 -0.552 -0.447 -1 -1 -1 s -1 0.448 -1 1 v 6.513 C 56.344 17.082 56.791 17.529 57.344 17.529 z" style="stroke: none; stroke-width: 1; stroke-dasharray: none; stroke-linecap: butt; stroke-linejoin: miter; stroke-miterlimit: 10; fill: rgb(0,0,0); fill-rule: nonzero; opacity: 1;" transform=" matrix(1 0 0 1 0 0) " stroke-linecap="round" />
	<path d="M 89 40.672 h -6.514 c -0.553 0 -1 0.448 -1 1 s 0.447 1 1 1 H 89 c 0.553 0 1 -0.448 1 -1 S 89.553 40.672 89 40.672 z" style="stroke: none; stroke-width: 1; stroke-dasharray: none; stroke-linecap: butt; stroke-linejoin: miter; stroke-miterlimit: 10; fill: rgb(0,0,0); fill-rule: nonzero; opacity: 1;" transform=" matrix(1 0 0 1 0 0) " stroke-linecap="round" />
	<path d="M 38.858 24.601 c 0.195 0.195 0.451 0.293 0.707 0.293 s 0.512 -0.098 0.707 -0.293 c 0.391 -0.391 0.391 -1.023 0 -1.414 l -4.605 -4.605 c -0.391 -0.391 -1.023 -0.391 -1.414 0 s -0.391 1.023 0 1.414 L 38.858 24.601 z" style="stroke: none; stroke-width: 1; stroke-dasharray: none; stroke-linecap: butt; stroke-linejoin: miter; stroke-miterlimit: 10; fill: rgb(0,0,0); fill-rule: nonzero; opacity: 1;" transform=" matrix(1 0 0 1 0 0) " stroke-linecap="round" />
	<path d="M 75.122 24.894 c 0.256 0 0.512 -0.098 0.707 -0.293 l 4.606 -4.605 c 0.391 -0.39 0.391 -1.023 0 -1.414 s -1.023 -0.391 -1.414 0 l -4.606 4.605 c -0.391 0.39 -0.391 1.023 0 1.414 C 74.61 24.796 74.866 24.894 75.122 24.894 z" style="stroke: none; stroke-width: 1; stroke-dasharray: none; stroke-linecap: butt; stroke-linejoin: miter; stroke-miterlimit: 10; fill: rgb(0,0,0); fill-rule: nonzero; opacity: 1;" transform=" matrix(1 0 0 1 0 0) " stroke-linecap="round" />
	<path d="M 75.682 54.209 c -0.179 -0.91 -0.436 -1.787 -0.75 -2.632 c 1.699 -3.013 2.605 -6.424 2.605 -9.905 c 0 -11.134 -9.059 -20.192 -20.192 -20.192 c -7.842 0 -14.9 4.508 -18.237 11.545 c -2.554 -1.008 -5.303 -1.565 -8.129 -1.565 c -12.282 0 -22.274 9.992 -22.274 22.274 c 0 0.249 0.005 0.497 0.015 0.743 C 3.473 56.529 0 61.57 0 67.255 c 0 7.57 6.159 13.729 13.729 13.729 h 57.713 c 7.57 0 13.729 -6.158 13.729 -13.729 C 85.172 61.307 81.301 56.031 75.682 54.209 z M 57.344 23.48 c 10.031 0 18.192 8.161 18.192 18.192 c 0 2.639 -0.58 5.231 -1.673 7.605 c -2.873 -5.155 -8.336 -8.529 -14.564 -8.529 c -3.089 0 -6.072 0.844 -8.696 2.451 c -2.203 -4.092 -5.621 -7.332 -9.669 -9.364 C 43.95 27.521 50.296 23.48 57.344 23.48 z M 71.442 78.983 H 13.729 C 7.262 78.983 2 73.722 2 67.255 c 0 -5.076 3.243 -9.553 8.069 -11.138 c 0.434 -0.143 0.716 -0.561 0.686 -1.016 c -0.03 -0.453 -0.051 -0.908 -0.051 -1.367 c 0 -11.179 9.095 -20.274 20.274 -20.274 c 7.801 0 14.998 4.561 18.335 11.619 c 0.127 0.268 0.365 0.465 0.651 0.54 c 0.284 0.076 0.59 0.019 0.832 -0.152 c 2.506 -1.779 5.446 -2.719 8.503 -2.719 c 7.271 0 13.377 5.215 14.518 12.398 c 0.062 0.389 0.345 0.705 0.724 0.809 c 5.082 1.39 8.631 6.036 8.631 11.3 C 83.172 73.722 77.91 78.983 71.442 78.983 z" style="stroke: none; stroke-width: 1; stroke-dasharray: none; stroke-linecap: butt; stroke-linejoin: miter; stroke-miterlimit: 10; fill: rgb(0,0,0); fill-rule: nonzero; opacity: 1;" transform=" matrix(1 0 0 1 0 0) " stroke-linecap="round" />
</g>
</svg>